# xmcd
#
# Track frame offsets:
#	150
#	19417
#	43872
#	65776
#	80821
#	108583
#	122862
#	144909
#	164570
#	199428
#	215629
#	230541
#	246830
#	264653
#	284514
#	304328
#	321793
#
# Disc length: 4520 seconds
#
# Revision: 0
# Processed by: cddbd v1.5.1PL2 Copyright (c) Steve Scherf et al.
# Submitted via: EasyCDDAExtractor 4.6.9.1
#
DISCID=1811a611
DTITLE=Wynonna - Collection
DYEAR=2004
DGENRE=Country
TTITLE0=No One Else on Earth (club mix)
TTITLE1=Making My Way
TTITLE2=Somebody To Love
TTITLE3=Change The World
TTITLE4=Heaven Help My Heart
TTITLE5=Rock Bottom (single version)
TTITLE6=To Be Loved By You
TTITLE7=Father Sun
TTITLE8=Freebird
TTITLE9=Let's Make A Baby King
TTITLE10=Girls With Guitars
TTITLE11=Only Love
TTITLE12=I Saw the Light
TTITLE13=She Is His Only Need
TTITLE14=My Strongest Weakness
TTITLE15=Is It Over Yet (single version)
TTITLE16=Tell Me Why
EXTD=
EXTT0=
EXTT1=
EXTT2=
EXTT3=
EXTT4=
EXTT5=
EXTT6=
EXTT7=
EXTT8=
EXTT9=
EXTT10=
EXTT11=
EXTT12=
EXTT13=
EXTT14=
EXTT15=
EXTT16=
PLAYORDER=
